<svg width="20" height="20" viewBox="0 0 20 20" fill="none" xmlns="http://www.w3.org/2000/svg">
<path fill-rule="evenodd" clip-rule="evenodd" d="M6.66675 1.66683C6.66675 1.20659 6.29365 0.833496 5.83341 0.833496C5.37318 0.833496 5.00008 1.20659 5.00008 1.66683V2.50016H4.16675C3.50371 2.50016 2.86782 2.76355 2.39898 3.2324C1.93014 3.70124 1.66675 4.33712 1.66675 5.00016V15.8335C1.66675 16.4965 1.93014 17.1324 2.39898 17.6013C2.86782 18.0701 3.50371 18.3335 4.16675 18.3335H15.8334C16.4965 18.3335 17.1323 18.0701 17.6012 17.6013C18.07 17.1324 18.3334 16.4965 18.3334 15.8335V5.00016C18.3334 4.33712 18.07 3.70124 17.6012 3.2324C17.1323 2.76355 16.4965 2.50016 15.8334 2.50016H15.4167C14.9565 2.50016 14.5834 2.87326 14.5834 3.3335C14.5834 3.79373 14.9565 4.16683 15.4167 4.16683H15.8334C16.0544 4.16683 16.2664 4.25463 16.4227 4.41091C16.5789 4.56719 16.6667 4.77915 16.6667 5.00016V7.50016H3.33341V5.00016C3.33341 4.77915 3.42121 4.56719 3.57749 4.41091C3.73377 4.25463 3.94573 4.16683 4.16675 4.16683H5.00008V5.00016C5.00008 5.4604 5.37318 5.8335 5.83341 5.8335C6.29365 5.8335 6.66675 5.4604 6.66675 5.00016V1.66683ZM3.57749 16.4228C3.42121 16.2665 3.33341 16.0545 3.33341 15.8335V9.16683H16.6667V15.8335C16.6667 16.0545 16.5789 16.2665 16.4227 16.4228C16.2664 16.579 16.0544 16.6668 15.8334 16.6668H4.16675C3.94573 16.6668 3.73377 16.579 3.57749 16.4228Z" fill="#101214"/>
<path d="M13.3334 1.66683C13.3334 1.20659 12.9603 0.833496 12.5001 0.833496C12.0398 0.833496 11.6667 1.20659 11.6667 1.66683V2.50016H8.75008C8.28984 2.50016 7.91675 2.87326 7.91675 3.3335C7.91675 3.79373 8.28984 4.16683 8.75008 4.16683H11.6667V5.00016C11.6667 5.4604 12.0398 5.8335 12.5001 5.8335C12.9603 5.8335 13.3334 5.4604 13.3334 5.00016V1.66683Z" fill="#101214"/>
</svg>
