<svg width="20" height="20" viewBox="0 0 20 20" fill="none" xmlns="http://www.w3.org/2000/svg">
<g clip-path="url(#clip0_16_48)">
<path d="M10.8333 11.45C10.58 11.5963 10.2926 11.6733 10 11.6733C9.70744 11.6733 9.42003 11.5963 9.16667 11.45L2.08333 7.39166C1.95509 7.31898 1.84841 7.21358 1.7742 7.08621C1.69998 6.95884 1.66088 6.81407 1.66088 6.66666C1.66088 6.51925 1.69998 6.37447 1.7742 6.24711C1.84841 6.11974 1.95509 6.01434 2.08333 5.94166L9.16667 1.88333C9.42003 1.73704 9.70744 1.66003 10 1.66003C10.2926 1.66003 10.58 1.73704 10.8333 1.88333L17.9167 5.94166C18.0449 6.01434 18.1516 6.11974 18.2258 6.24711C18.3 6.37447 18.3391 6.51925 18.3391 6.66666C18.3391 6.81407 18.3 6.95884 18.2258 7.08621C18.1516 7.21358 18.0449 7.31898 17.9167 7.39166L10.8333 11.45Z" stroke="#A5AAB5" stroke-width="2" stroke-linecap="round" stroke-linejoin="round"/>
<path d="M16.6667 11.9042L17.9167 12.6083C18.0449 12.681 18.1516 12.7864 18.2258 12.9138C18.3 13.0412 18.3391 13.1859 18.3391 13.3333C18.3391 13.4808 18.3 13.6255 18.2258 13.7529C18.1516 13.8803 18.0449 13.9857 17.9167 14.0583L10.8333 18.1167C10.58 18.263 10.2926 18.34 10 18.34C9.70744 18.34 9.42003 18.263 9.16667 18.1167L2.08333 14.0583C1.95509 13.9857 1.84841 13.8803 1.7742 13.7529C1.69998 13.6255 1.66088 13.4808 1.66088 13.3333C1.66088 13.1859 1.69998 13.0412 1.7742 12.9138C1.84841 12.7864 1.95509 12.681 2.08333 12.6083L3.33333 11.9042" stroke="#A5AAB5" stroke-width="2" stroke-linecap="round" stroke-linejoin="round"/>
</g>
<defs>
<clipPath id="clip0_16_48">
<rect width="20" height="20" fill="white"/>
</clipPath>
</defs>
</svg>
