<svg width="26" height="26" viewBox="0 0 26 26" fill="none" xmlns="http://www.w3.org/2000/svg">
<path d="M17.3333 15.1666V17.55L19.0667 18.6333" stroke="black" stroke-width="2" stroke-linecap="round" stroke-linejoin="round"/>
<path d="M17.3333 2.16663V6.49996" stroke="black" stroke-width="2" stroke-linecap="round" stroke-linejoin="round"/>
<path d="M22.75 8.12504V6.50004C22.75 5.9254 22.5217 5.3743 22.1154 4.96798C21.7091 4.56165 21.158 4.33337 20.5833 4.33337H5.41667C4.84203 4.33337 4.29093 4.56165 3.8846 4.96798C3.47827 5.3743 3.25 5.9254 3.25 6.50004V21.6667C3.25 22.2413 3.47827 22.7924 3.8846 23.1988C4.29093 23.6051 4.84203 23.8334 5.41667 23.8334H9.20833" stroke="black" stroke-width="2" stroke-linecap="round" stroke-linejoin="round"/>
<path d="M3.25 10.8334H8.66667" stroke="black" stroke-width="2" stroke-linecap="round" stroke-linejoin="round"/>
<path d="M8.66666 2.16663V6.49996" stroke="black" stroke-width="2" stroke-linecap="round" stroke-linejoin="round"/>
<path d="M17.3333 23.8334C20.9232 23.8334 23.8333 20.9232 23.8333 17.3334C23.8333 13.7435 20.9232 10.8334 17.3333 10.8334C13.7435 10.8334 10.8333 13.7435 10.8333 17.3334C10.8333 20.9232 13.7435 23.8334 17.3333 23.8334Z" stroke="black" stroke-width="2" stroke-linecap="round" stroke-linejoin="round"/>
</svg>
