<svg width="20" height="20" viewBox="0 0 20 20" fill="none" xmlns="http://www.w3.org/2000/svg">
<g clip-path="url(#clip0_6_195)">
<path fill-rule="evenodd" clip-rule="evenodd" d="M12.5 15.625C12.5 15.7908 12.4342 15.9497 12.3169 16.0669C12.1997 16.1842 12.0408 16.25 11.875 16.25H1.875C1.70924 16.25 1.55027 16.1842 1.43306 16.0669C1.31585 15.9497 1.25 15.7908 1.25 15.625V4.375C1.25 4.20924 1.31585 4.05027 1.43306 3.93306C1.55027 3.81585 1.70924 3.75 1.875 3.75H11.875C12.0408 3.75 12.1997 3.81585 12.3169 3.93306C12.4342 4.05027 12.5 4.20924 12.5 4.375V6.875C12.5 7.04076 12.5658 7.19973 12.6831 7.31694C12.8003 7.43415 12.9592 7.5 13.125 7.5C13.2908 7.5 13.4497 7.43415 13.5669 7.31694C13.6842 7.19973 13.75 7.04076 13.75 6.875V4.375C13.75 3.87772 13.5525 3.40081 13.2008 3.04917C12.8492 2.69754 12.3723 2.5 11.875 2.5H1.875C1.37772 2.5 0.900805 2.69754 0.549175 3.04917C0.197544 3.40081 0 3.87772 0 4.375L0 15.625C0 16.1223 0.197544 16.5992 0.549175 16.9508C0.900805 17.3025 1.37772 17.5 1.875 17.5H11.875C12.3723 17.5 12.8492 17.3025 13.2008 16.9508C13.5525 16.5992 13.75 16.1223 13.75 15.625V13.125C13.75 12.9592 13.6842 12.8003 13.5669 12.6831C13.4497 12.5658 13.2908 12.5 13.125 12.5C12.9592 12.5 12.8003 12.5658 12.6831 12.6831C12.5658 12.8003 12.5 12.9592 12.5 13.125V15.625Z" fill="#646464"/>
<path fill-rule="evenodd" clip-rule="evenodd" d="M19.8175 10.4426C19.8757 10.3845 19.9219 10.3155 19.9534 10.2396C19.9849 10.1637 20.0011 10.0823 20.0011 10.0001C20.0011 9.91785 19.9849 9.83645 19.9534 9.76052C19.9219 9.68459 19.8757 9.61562 19.8175 9.55756L16.0675 5.80756C15.9501 5.6902 15.791 5.62427 15.625 5.62427C15.459 5.62427 15.2999 5.6902 15.1825 5.80756C15.0651 5.92492 14.9992 6.08409 14.9992 6.25006C14.9992 6.41603 15.0651 6.5752 15.1825 6.69256L17.8663 9.37506H6.875C6.70924 9.37506 6.55027 9.44091 6.43306 9.55812C6.31585 9.67533 6.25 9.8343 6.25 10.0001C6.25 10.1658 6.31585 10.3248 6.43306 10.442C6.55027 10.5592 6.70924 10.6251 6.875 10.6251H17.8663L15.1825 13.3076C15.0651 13.4249 14.9992 13.5841 14.9992 13.7501C14.9992 13.916 15.0651 14.0752 15.1825 14.1926C15.2999 14.3099 15.459 14.3758 15.625 14.3758C15.791 14.3758 15.9501 14.3099 16.0675 14.1926L19.8175 10.4426Z" fill="#646464"/>
</g>
<defs>
<clipPath id="clip0_6_195">
<rect width="20" height="20" fill="white"/>
</clipPath>
</defs>
</svg>
