<svg width="20" height="20" viewBox="0 0 20 20" fill="none" xmlns="http://www.w3.org/2000/svg">
<g clip-path="url(#clip0_17_68)">
<path d="M10 2.49996V1.66663" stroke="#A5AAB5" stroke-width="2" stroke-linecap="round" stroke-linejoin="round"/>
<path d="M12.8333 14.4999L15.5 12.1666C15.6587 12.0134 15.846 11.893 16.0512 11.8121C16.2564 11.7313 16.4756 11.6917 16.6961 11.6956C16.9167 11.6994 17.1343 11.7467 17.3366 11.8347C17.5388 11.9227 17.7218 12.0496 17.875 12.2083C18.0282 12.367 18.1487 12.5543 18.2295 12.7595C18.3103 12.9647 18.3499 13.1839 18.346 13.4044C18.3422 13.625 18.2949 13.8426 18.2069 14.0448C18.119 14.2471 17.992 14.4301 17.8333 14.5833L14.8333 17.3333C14.25 17.9999 13.4167 18.3333 12.5 18.3333H9.16667C8.25 18.3333 7.41667 17.9999 6.83333 17.3333L5.74833 16.1133C5.67022 16.0253 5.57436 15.9549 5.46707 15.9066C5.35978 15.8584 5.24348 15.8334 5.12583 15.8333H4.16667" stroke="#A5AAB5" stroke-width="2" stroke-linecap="round" stroke-linejoin="round"/>
<path d="M1.66667 11.6666H11.6667C12.1087 11.6666 12.5326 11.8422 12.8452 12.1548C13.1577 12.4673 13.3333 12.8913 13.3333 13.3333C13.3333 13.7753 13.1577 14.1992 12.8452 14.5118C12.5326 14.8244 12.1087 15 11.6667 15H10" stroke="#A5AAB5" stroke-width="2" stroke-linecap="round" stroke-linejoin="round"/>
<path d="M3.33333 8.33337H16.6667" stroke="#A5AAB5" stroke-width="2" stroke-linecap="round" stroke-linejoin="round"/>
<path d="M4.16667 8.33333C4.16667 6.78624 4.78125 5.30251 5.87521 4.20854C6.96917 3.11458 8.45291 2.5 10 2.5C11.5471 2.5 13.0308 3.11458 14.1248 4.20854C15.2188 5.30251 15.8333 6.78624 15.8333 8.33333" stroke="#A5AAB5" stroke-width="2" stroke-linecap="round" stroke-linejoin="round"/>
<path d="M4.16667 11.6666V16.6666C4.16667 16.8876 4.07887 17.0996 3.92259 17.2559C3.76631 17.4122 3.55435 17.5 3.33333 17.5H1.66667" stroke="#A5AAB5" stroke-width="2" stroke-linecap="round" stroke-linejoin="round"/>
</g>
<defs>
<clipPath id="clip0_17_68">
<rect width="20" height="20" fill="white"/>
</clipPath>
</defs>
</svg>
